Coordinates
version=1
nRows=13
nColumns=40
inDegrees=yes

Units are S.I. units (second, meters, Newtons, ...)
Angles are in degrees.

endheader
time	pelvis_tilt	pelvis_list	pelvis_rotation	pelvis_tx	pelvis_ty	pelvis_tz	hip_flexion_r	hip_adduction_r	hip_rotation_r	knee_angle_r	knee_angle_r_beta	ankle_angle_r	subtalar_angle_r	mtp_angle_r	hip_flexion_l	hip_adduction_l	hip_rotation_l	knee_angle_l	knee_angle_l_beta	ankle_angle_l	subtalar_angle_l	mtp_angle_l	lumbar_extension	lumbar_bending	lumbar_rotation	arm_flex_r	arm_add_r	arm_rot_r	elbow_flex_r	pro_sup_r	wrist_flex_r	wrist_dev_r	arm_flex_l	arm_add_l	arm_rot_l	elbow_flex_l	pro_sup_l	wrist_flex_l	wrist_dev_l
     30.21000000	     -3.22615844	     -3.62941311	     -2.01373642	      0.91373588	      0.93532615	      0.41852866	     30.13849700	     -5.84686564	     -7.69083997	     43.68178960	     43.68178960	      5.37824676	     -7.92839321	     -0.65917081	      9.86344989	     -3.56185095	    -11.66434640	     17.96652831	     17.96652831	     14.74073548	     -1.19972520	     -5.48446349	     -9.72472999	      3.44417828	     -0.04734619	     -7.95847761	    -13.23027149	     -8.73637120	     30.30634226	     46.98730833	      0.00000000	      0.00000000	     16.56236855	    -15.90394249	     -1.33338205	     41.70610706	     46.32919447	      0.00000000	      0.00000000
     30.22400000	     -3.19111117	     -3.49955263	     -2.28266629	      0.91339049	      0.93520974	      0.41859923	     29.71036419	     -5.70823144	     -7.96986746	     39.46693025	     39.46693025	      4.75032472	     -6.61559593	     -1.54661685	      9.10314459	     -3.35468513	    -11.87672838	     17.53602916	     17.53602916	     14.87665557	     -1.24494377	     -5.66566208	     -9.74099886	      3.20507811	     -0.29269114	     -6.91794082	    -12.95842377	    -12.75642597	     25.13790875	     47.44243767	      0.00000000	      0.00000000	     16.37185222	    -16.10482495	     -2.23401382	     43.56137088	     46.44720949	      0.00000000	      0.00000000
     30.23800000	     -3.32125574	     -3.49303502	     -2.55410219	      0.91294359	      0.93470787	      0.41886290	     29.42402093	     -5.36306900	     -8.25986428	     35.27548918	     35.27548918	      4.44077613	     -5.02296894	     -0.86437934	      8.62098669	     -3.31667989	    -12.01353300	     17.29518951	     17.29518951	     15.16771671	     -1.32007538	     -5.73123686	     -9.59328337	      3.18130777	     -0.13522196	     -7.82092958	    -13.41301958	    -12.97146473	     24.70102268	     47.46647974	      0.00000000	      0.00000000	     16.77988131	    -16.13844234	     -2.35570177	     44.06265687	     46.46791566	      0.00000000	      0.00000000
     30.25200000	     -3.25996614	     -3.43100644	     -2.79214920	      0.91261637	      0.93439157	      0.41919738	     28.84846797	     -5.13061917	     -8.79300573	     31.08225059	     31.08225059	      4.09121197	     -2.75954831	     -0.23572535	      7.88139219	     -3.19507275	    -12.14706629	     16.96921879	     16.96921879	     15.44330396	     -1.38203326	     -5.80434187	     -9.71629116	      3.05096834	      0.25678664	     -8.68279095	    -13.88923092	    -13.28934442	     24.03646359	     47.50789578	      0.00000000	      0.00000000	     17.24152458	    -15.97157363	     -2.55444807	     44.92909755	     46.50000835	      0.00000000	      0.00000000
     30.26600000	     -3.27215121	     -3.32954014	     -3.04028691	      0.91233095	      0.93386992	      0.41968288	     28.34646326	     -4.90656795	     -9.37555269	     27.03395229	     27.03395229	      3.59738935	     -0.24230755	      0.49908137	      7.21871602	     -3.03180806	    -12.26830138	     16.63638265	     16.63638265	     15.66288678	     -1.52319757	     -5.92430185	     -9.72962576	      2.90085182	      0.54236438	     -9.34958729	    -14.29166135	    -13.67158959	     23.40054133	     47.55497880	      0.00000000	      0.00000000	     17.51229074	    -15.87578051	     -2.83606146	     45.90034897	     46.53869390	      0.00000000	      0.00000000
     30.28000000	     -3.33833542	     -3.19914036	     -3.26793508	      0.91206003	      0.93315458	      0.42037638	     27.95859995	     -4.70929562	    -10.08128295	     23.32837754	     23.32837754	      3.15203516	      2.63678305	      1.55709782	      6.56758213	     -2.81270173	    -12.24549500	     16.17613129	     16.17613129	     15.72781117	     -1.84474110	     -6.27161773	     -9.67546839	      2.69486266	      0.55422540	     -9.66253071	    -14.59812934	    -14.59956984	     22.63222190	     47.64672978	      0.00000000	      0.00000000	     17.30511793	    -15.84010633	     -3.54518502	     47.47841806	     46.61911757	      0.00000000	      0.00000000
     30.29400000	     -3.38026942	     -3.16446824	     -3.45916477	      0.91189991	      0.93241793	      0.42132844	     27.51662822	     -4.31152504	    -10.58677518	     19.86756622	     19.86756622	      2.50737555	      4.90000205	      2.70022417	      5.95760602	     -2.75521451	    -12.29762802	     15.89084609	     15.89084609	     15.96928732	     -1.97548284	     -6.50148986	     -9.66063845	      2.60480381	      0.70365065	    -10.13000045	    -14.98863876	    -14.92829712	     22.33454396	     47.67740323	      0.00000000	      0.00000000	     17.36573251	    -15.78623794	     -3.83011617	     48.25185652	     46.65348677	      0.00000000	      0.00000000
     30.30800000	     -3.42948773	     -3.02626380	     -3.64115748	      0.91183549	      0.93159375	      0.42232176	     27.31382450	     -4.11944021	    -11.23916692	     17.24204439	     17.24204439	      2.56768893	      7.49781088	      5.59557962	      5.22078960	     -2.51329585	    -12.17922426	     15.30103218	     15.30103218	     15.79277774	     -2.49789874	     -7.38339632	     -9.63550294	      2.41301838	      0.46555232	    -10.17736719	    -15.23007544	    -16.50265767	     22.06487669	     47.77221844	      0.00000000	      0.00000000	     16.64860251	    -15.68164991	     -5.14087231	     50.30730749	     46.78539907	      0.00000000	      0.00000000
     30.32200000	     -3.47492081	     -3.03468477	     -3.79919623	      0.91190807	      0.93076066	      0.42372484	     27.02456700	     -3.69310134	    -11.66881919	     14.86670051	     14.86670051	      1.92242223	      9.18353206	      6.46986736	      4.58268762	     -2.53392804	    -12.23127350	     14.99941682	     14.99941682	     16.08370150	     -2.48714042	     -7.51287892	     -9.58059336	      2.35999716	      0.62378301	    -10.58692433	    -15.52584973	    -16.67726887	     21.96737264	     47.78080359	      0.00000000	      0.00000000	     16.72243052	    -15.64551350	     -5.26326644	     50.73853942	     46.80139301	      0.00000000	      0.00000000
     30.33600000	     -3.54799071	     -2.97368724	     -3.92626371	      0.91206542	      0.92979658	      0.42518160	     26.90161763	     -3.38820642	    -12.00009312	     13.21029974	     13.21029974	      1.43630063	     10.40294580	      7.18020556	      3.96140301	     -2.47938150	    -12.31346115	     14.66646538	     14.66646538	     16.37488730	     -2.46185523	     -7.64430749	     -9.47375632	      2.26807881	      0.71275194	    -10.88629647	    -15.73293873	    -16.82647822	     22.05323573	     47.78119498	      0.00000000	      0.00000000	     16.62584971	    -15.55443060	     -5.38706488	     51.20633529	     46.81538559	      0.00000000	      0.00000000
     30.35000000	     -3.40958494	     -2.99130565	     -4.03202434	      0.91250816	      0.92914631	      0.42675579	     26.61132937	     -3.11405393	    -12.59935024	     12.25444859	     12.25444859	      1.27599496	     11.59117600	      7.99380845	      3.00773159	     -2.47933864	    -12.36782564	     14.17562323	     14.17562323	     16.59697442	     -2.41495867	     -7.85807490	     -9.63716374	      2.26642360	      0.71549147	    -11.14763994	    -15.97770387	    -17.19747067	     22.60838727	     47.76997875	      0.00000000	      0.00000000	     16.25295572	    -15.49636073	     -5.77034026	     52.24425516	     46.85570942	      0.00000000	      0.00000000
     30.36400000	     -3.50805913	     -2.92566457	     -4.09682157	      0.91280307	      0.92795231	      0.42850850	     26.81303632	     -2.94034487	    -12.73432188	     12.17518867	     12.17518867	      1.16031628	     11.55695349	      8.05243271	      2.57477418	     -2.47792242	    -12.36630765	     14.16964886	     14.16964886	     16.96818624	     -2.49116200	     -7.98542598	     -9.46712501	      2.14637932	      0.68519375	    -11.16791257	    -16.04295167	    -17.21782576	     22.63201182	     47.77023037	      0.00000000	      0.00000000	     16.22276244	    -15.45553132	     -5.77095318	     52.27596716	     46.85578024	      0.00000000	      0.00000000
     30.37800000	     -3.62454437	     -2.87471229	     -4.15478895	      0.91326391	      0.92682148	      0.43028942	     26.82039812	     -2.76877991	    -12.96128312	     12.16942620	     12.16942620	      1.06454337	     11.43940434	      8.08618838	      2.14426287	     -2.49190599	    -12.36212526	     14.14621132	     14.14621132	     17.30046100	     -2.55117546	     -8.08870501	     -9.24760671	      2.09245083	      0.71586500	    -11.13960704	    -16.10649087	    -17.23674951	     22.68140297	     47.76974530	      0.00000000	      0.00000000	     16.13884731	    -15.40381957	     -5.77076553	     52.29810997	     46.85517349	      0.00000000	      0.00000000
